<?xml version="1.0" encoding="utf-8"?><!DOCTYPE svg PUBLIC "-//W3C//DTD SVG 1.1//EN" "http://www.w3.org/Graphics/SVG/1.1/DTD/svg11.dtd"><svg width="32" height="32" viewBox="0 0 32 32" xmlns="http://www.w3.org/2000/svg" xmlns:xlink="http://www.w3.org/1999/xlink"><svg width="16" height="16" viewBox="8 8 16 16" id="facebook"><path fill="#3B5998" d="M8 8h16v16H8z"/><path fill="#FFF" d="M19 24v-6h2l.4-2.5H19v-1.65c0-.7.25-1.2 1.25-1.2h1.25V10.5c-.2-.05-.95-.1-1.85-.1-1.851 0-3.15 1.15-3.15 3.2v1.9h-2V18h2v6H19z"/></svg><svg width="16" height="16" viewBox="8 8 16 16" id="googleplus" x="16"><path fill="#CE3825" d="M8 8h16v16H8z"/><g fill="#FFF"><path d="M23.5 12H21V9.5h-1V12h-2.5v1H20v2.5h1V13h2.5zM17.25 9H12.4c-.644 0-1.333.075-2.069.226-.744.174-1.46.547-2.149 1.118a6.27 6.27 0 0 0-.182.183v5.955c.66.619 1.557.937 2.69.95.244 0 .504-.016.779-.049l-.148.419a1.383 1.383 0 0 0-.091.538c0 .358.08.666.239.921.137.263.293.511.467.742-.565.016-1.277.086-2.133.213A7.472 7.472 0 0 0 8 20.775v1.341c.108-.15.228-.284.359-.401.231-.19.46-.337.683-.44.224-.095.397-.166.521-.214a10.518 10.518 0 0 1 1.541-.345c.51-.048.826-.063.95-.048.208 0 .39.008.544.023.903.636 1.567 1.17 1.992 1.606.401.461.602.999.602 1.618l-.002.084h1.42c.096-.334.144-.679.144-1.037-.015-.833-.204-1.506-.567-2.022a8.373 8.373 0 0 0-1.345-1.392l-.823-.678a4.682 4.682 0 0 1-.366-.416.915.915 0 0 1-.223-.631c0-.261.072-.49.217-.689a3.48 3.48 0 0 1 .401-.512c.253-.222.491-.439.715-.654a6.57 6.57 0 0 0 .575-.701c.369-.523.56-1.221.575-2.094a4.4 4.4 0 0 0-.16-1.249 4.598 4.598 0 0 0-.445-.927 4.396 4.396 0 0 0-.537-.702c-.19-.183-.361-.201-.514-.296h1.495L17.25 9zm-3.446 6.124a2.52 2.52 0 0 1-.396.953c-.426.438-.958.667-1.596.692-.505 0-.955-.155-1.347-.466a3.77 3.77 0 0 1-.963-1.132c-.514-.953-.77-1.872-.77-2.753a3.015 3.015 0 0 1 .528-1.812c.436-.516.981-.783 1.639-.798.497.016.936.163 1.319.441.374.294.676.675.906 1.144.489.978.733 1.947.733 2.908a8.267 8.267 0 0 1-.053.823z"/></g></svg><svg width="16" height="16" viewBox="8 8 16 16" id="linkedin" y="16"><path fill="#39C" d="M8 8h16v16H8z"/><g fill="#FFF"><path d="M13 21.5V14h-2.5v7.5zM17 17.325c0-.223-.011-.446.05-.606.166-.446.316-.844.95-.844.829 0 1 .621 1 1.625v4h2.5v-4.286c0-2.295-.991-3.364-2.5-3.364-1.237 0-1.698.749-2 1.259V14h-2.5v7.5H17v-4.175z"/><circle cx="11.75" cy="11.75" r="1.25"/></g></svg><svg width="16" height="16" viewBox="8 8 16 16" id="twitter" x="16" y="16"><path fill="#00ACED" d="M8 8h16v16H8z"/><path fill="#FFF" d="M21.333 12.692a4.366 4.366 0 0 1-1.257.345 2.2 2.2 0 0 0 .963-1.211c-.424.25-.892.434-1.391.5a2.187 2.187 0 0 0-3.785 1.498c0 .172 0 .339.057.5a6.168 6.168 0 0 1-4.5-2.286 2.186 2.186 0 0 0 .678 2.922c-.358 0-.696-.11-.991-.273 0 1.06.75 1.945 1.756 2.146-.184.05-.377.076-.577.076h-.411c.278.869 1.086 1.5 2 1.5a4.384 4.384 0 0 1-2.718.938c-.177 0-.352 0-.5-.031a6.19 6.19 0 0 0 3.354.983c4.025 0 6.227-3.335 6.227-6.227v-.283a3.766 3.766 0 0 0 1.095-1.097z"/></svg></svg>