<?xml version="1.0" encoding="utf-8"?>
<!-- Generator: Adobe Illustrator 16.0.0, SVG Export Plug-In . SVG Version: 6.00 Build 0)  -->
<!DOCTYPE svg PUBLIC "-//W3C//DTD SVG 1.1//EN" "http://www.w3.org/Graphics/SVG/1.1/DTD/svg11.dtd">
<svg version="1.1" id="Layer_1" xmlns="http://www.w3.org/2000/svg" xmlns:xlink="http://www.w3.org/1999/xlink" x="0px" y="0px"
	 width="16px" height="16px" viewBox="8 8 16 16" enable-background="new 8 8 16 16" xml:space="preserve">
<rect x="8" y="8" fill="#CE3825" width="16" height="16"/>
<g>
	<polygon fill="#FFFFFF" points="23.5,12 21,12 21,9.5 20,9.5 20,12 17.5,12 17.5,13 20,13 20,15.5 21,15.5 21,13 23.5,13 	"/>
	<path fill="#FFFFFF" d="M17.25,9H12.4c-0.644,0-1.333,0.075-2.069,0.226C9.587,9.4,8.871,9.773,8.182,10.344
		C8.119,10.404,8.059,10.466,8,10.527v5.955c0.66,0.619,1.557,0.937,2.69,0.95c0.244,0,0.504-0.016,0.779-0.049
		c-0.046,0.128-0.095,0.268-0.148,0.419c-0.061,0.144-0.091,0.323-0.091,0.538c0,0.358,0.08,0.666,0.239,0.921
		c0.137,0.263,0.293,0.511,0.467,0.742c-0.565,0.016-1.277,0.086-2.133,0.213C9.183,20.324,8.581,20.512,8,20.775v1.341
		c0.108-0.15,0.228-0.284,0.359-0.401c0.231-0.19,0.46-0.337,0.683-0.44c0.224-0.095,0.397-0.166,0.521-0.214
		c0.524-0.158,1.039-0.273,1.541-0.345c0.51-0.048,0.826-0.063,0.95-0.048c0.208,0,0.39,0.008,0.544,0.023
		c0.903,0.636,1.567,1.17,1.992,1.606c0.401,0.461,0.602,0.999,0.602,1.618c0,0.028-0.001,0.056-0.002,0.084h1.42
		c0.096-0.334,0.144-0.679,0.144-1.037c-0.015-0.833-0.204-1.506-0.567-2.022c-0.386-0.507-0.834-0.971-1.345-1.392l-0.823-0.678
		c-0.119-0.118-0.24-0.257-0.366-0.416c-0.148-0.166-0.223-0.377-0.223-0.631c0-0.261,0.072-0.49,0.217-0.689
		c0.123-0.19,0.257-0.361,0.401-0.512c0.253-0.222,0.491-0.439,0.715-0.654c0.202-0.214,0.395-0.448,0.575-0.701
		c0.369-0.523,0.56-1.221,0.575-2.094c0-0.476-0.054-0.892-0.16-1.249c-0.129-0.357-0.277-0.666-0.445-0.927
		c-0.175-0.278-0.354-0.511-0.537-0.702c-0.19-0.183-0.361-0.201-0.514-0.296h1.495L17.25,9z M13.804,15.124
		c-0.059,0.326-0.19,0.644-0.396,0.953c-0.426,0.438-0.958,0.667-1.596,0.692c-0.505,0-0.955-0.155-1.347-0.466
		c-0.394-0.31-0.714-0.688-0.963-1.132c-0.514-0.953-0.77-1.872-0.77-2.753c-0.016-0.667,0.16-1.271,0.528-1.812
		c0.436-0.516,0.981-0.783,1.639-0.798c0.497,0.016,0.936,0.163,1.319,0.441c0.374,0.294,0.676,0.675,0.906,1.144
		c0.489,0.978,0.733,1.947,0.733,2.908C13.856,14.523,13.839,14.797,13.804,15.124z"/>
</g>
</svg>
