<?xml version="1.0" encoding="utf-8"?>
<!-- Generator: Adobe Illustrator 16.0.0, SVG Export Plug-In . SVG Version: 6.00 Build 0)  -->
<!DOCTYPE svg PUBLIC "-//W3C//DTD SVG 1.1//EN" "http://www.w3.org/Graphics/SVG/1.1/DTD/svg11.dtd">
<svg version="1.1" id="Layer_1" xmlns="http://www.w3.org/2000/svg" xmlns:xlink="http://www.w3.org/1999/xlink" x="0px" y="0px"
	 width="16px" height="16px" viewBox="8 8 16 16" enable-background="new 8 8 16 16" xml:space="preserve">
<rect x="8" y="8" fill="#3399CC" width="16" height="16"/>
<g>
	<polygon fill="#FFFFFF" points="13,21.5 13,14 10.5,14 10.5,21.5 	"/>
	<path fill="#FFFFFF" d="M17,17.325c0-0.223-0.011-0.446,0.05-0.606c0.166-0.446,0.316-0.844,0.95-0.844c0.829,0,1,0.621,1,1.625v4
		h2.5v-4.286c0-2.295-0.991-3.364-2.5-3.364c-1.237,0-1.698,0.749-2,1.259V14h-2.5v7.5l0,0H17V17.325z"/>
	<circle fill="#FFFFFF" cx="11.75" cy="11.75" r="1.25"/>
</g>
</svg>
