<?xml version="1.0" encoding="utf-8"?>
<!-- Generator: Adobe Illustrator 16.0.0, SVG Export Plug-In . SVG Version: 6.00 Build 0)  -->
<!DOCTYPE svg PUBLIC "-//W3C//DTD SVG 1.1//EN" "http://www.w3.org/Graphics/SVG/1.1/DTD/svg11.dtd">
<svg version="1.1" id="Layer_1" xmlns="http://www.w3.org/2000/svg" xmlns:xlink="http://www.w3.org/1999/xlink" x="0px" y="0px"
	 width="16px" height="16px" viewBox="8 8 16 16" enable-background="new 8 8 16 16" xml:space="preserve">
<rect x="8" y="8" fill="#00ACED" width="16" height="16"/>
<path fill="#FFFFFF" d="M21.333,12.692c-0.392,0.174-0.813,0.292-1.257,0.345c0.452-0.271,0.799-0.7,0.963-1.211
	c-0.424,0.25-0.892,0.434-1.391,0.5c-0.398-0.425-0.968-0.69-1.597-0.69c-1.209,0-2.188,0.979-2.188,2.188
	c0,0.172,0,0.339,0.057,0.5c-1.819-0.091-3.432-0.962-4.5-2.286c-0.188,0.323-0.296,0.699-0.296,1.1c0,0.76,0.386,1.429,0.974,1.822
	c-0.358,0-0.696-0.11-0.991-0.273l0,0c0,1.06,0.75,1.945,1.756,2.146c-0.184,0.05-0.377,0.076-0.577,0.076c-0.141,0-0.277,0-0.411,0
	c0.278,0.869,1.086,1.5,2,1.5c-0.749,0.588-1.692,0.938-2.718,0.938c-0.177,0-0.352,0-0.5-0.031
	c0.968,0.621,2.118,0.983,3.354,0.983c4.025,0,6.227-3.335,6.227-6.227c0-0.095,0-0.189,0-0.283
	C20.669,13.516,21.04,13.131,21.333,12.692z"/>
</svg>
